
<svg width="2560" height="1489" viewBox="0 0 2560 1489" fill="none" xmlns="http://www.w3.org/2000/svg">
    <g clip-path="url(#clip0_1501_4918)">
        <rect width="2560" height="1489" fill="#0A102D"/>
        <path d="M2559.97 0.0592041H0V1190.74H2559.97V0.0592041Z" fill="url(#paint0_radial_1501_4918)"/>
        <g style="mix-blend-mode:multiply" opacity="0.1">
            <path d="M1216.28 0.0595342H745.249C745.249 0.386972 745.249 0.71441 745.249 1.04185C746.023 74.001 853.095 104.006 888.25 162.409C938.854 246.531 885.571 337.291 903.253 426.473C917.243 496.902 975.497 549.084 1008.48 612.875C1040.69 675.177 1047.89 746.945 1054.56 816.749C1066.38 940.967 1078.19 1066.73 1069.29 1190.71H1116.92C1130.88 1158.39 1140.47 1124.81 1141.87 1089.56C1144.28 1028.01 1121.12 968.085 1118.95 906.467C1116.39 832.824 1143.86 760.817 1143.56 687.084C1143.21 596.532 1101.08 510.327 1098.32 419.805C1094 279.275 1183.42 153.985 1213.34 16.6398C1214.5 11.2222 1215.48 5.65575 1216.31 0L1216.28 0.0595342Z" fill="#2C2082"/>
        </g>
        <g style="mix-blend-mode:multiply" opacity="0.15">
            <path d="M2559.97 730.722C2460.22 821.75 2346.54 926.262 2334.01 940.908C2311.32 967.52 2095.81 1105.46 2009.52 1078.85C1961.11 1063.94 1875.56 1129.93 1809.72 1190.74H2559.97V730.722Z" fill="#2C2082"/>
        </g>
        <g style="mix-blend-mode:multiply" opacity="0.15">
            <path d="M887.952 778.856C832.466 696.192 765.312 620.673 721.792 531.164C669.849 424.389 654.4 303.564 610.523 193.188C574.177 101.744 518.692 51.7646 451.924 0.0592041H0V286.151C67.6606 307.643 138.566 319.966 203.101 349.555C283.353 386.376 349.228 447.875 413.524 508.302C510.863 599.687 608.171 691.132 705.48 782.517C757.037 830.948 808.623 879.409 857.084 930.965C934.27 1013.09 1003.03 1102.57 1073.28 1190.77H1108.47C1078.04 1130.61 1047.59 1070.48 1017.17 1010.32C977.254 931.442 937.187 852.291 887.952 778.885V778.856Z" fill="#2C2082"/>
        </g>
        <path d="M743.91 985.559L318.746 976.569L324.819 859.823L335.624 651.126L336.726 629.545L339.851 622.311L359.17 577.184L387.627 444.066L468.177 426.176L468.475 426.116L495.206 527.235L510.387 584.656L624.157 674.404L743.91 985.559Z" fill="url(#paint1_linear_1501_4918)"/>
        <path d="M510.387 584.656L480.441 626.032L453.502 772.635L515.358 647.494L624.157 674.404L510.387 584.656Z" fill="#2F46CC"/>
        <path d="M772.365 859.882L689.851 882.802L661.066 890.81L635.615 851.428L730.453 845.445L772.365 859.882Z" fill="url(#paint2_linear_1501_4918)"/>
        <path d="M772.365 859.882L768.615 948.528L680.683 951.148L661.096 890.81L772.365 859.882Z" fill="#4A6ABB"/>
        <path d="M661.096 890.81L709.974 877.355L705.985 928.197L675.563 932.186L661.096 890.81Z" fill="#3C3CA6"/>
        <path d="M468.475 426.116L425.044 462.016L390.604 903.283L324.819 859.823L306.78 847.916L335.624 651.126L339.851 622.311L359.17 577.184L387.627 444.066L468.475 426.116Z" fill="#2F46CC"/>
        <path d="M690.358 984.428L679.612 967.699L678.094 965.377L677.767 964.871L674.373 959.603L671.605 955.316L650.381 922.364L552.299 770.165L547.417 768.647L467.522 744.267L459.187 741.737L444.512 737.242L443.44 735.397L408.434 674.999L378.637 623.562L368.308 583.317L366.373 575.815L362.593 561.14L329.551 432.546L321.752 402.184L260.938 361.671L240.905 348.335L193.01 189.766L130.112 210.722L117.223 318.955L115.139 336.369L55.2775 411.144L34.3215 542.774L0 572.482V1028.96L134.696 1021.1L137.911 1020.92L233.791 1015.33L316.752 1010.47L693.008 988.536L690.358 984.428Z" fill="#2A2A93"/>
        <path d="M677.796 964.871L36.3157 994.519L30.3325 952.637L66.2614 769.153L112.162 613.59L114.157 402.184L150.086 356.313L154.074 220.664L193.01 189.766L240.905 348.306L321.752 402.184L378.637 623.562L444.512 737.242L552.298 770.135L677.796 964.871Z" fill="url(#paint3_linear_1501_4918)"/>
        <path d="M0 572.48V789.184L24.022 616.803L29.5885 576.707L34.3214 542.773L0 572.48Z" fill="#212184"/>
        <path d="M701.997 955.613L677.826 955.345L339.91 951.654L154.074 949.63L64.2373 942.158C64.2373 942.158 116.627 692.353 145.085 665.443C169.107 642.701 366.641 575.695 366.641 575.695L370.541 581.768L462.461 725.275L579.238 764.181L691.281 938.913L701.997 955.642V955.613Z" fill="#2A2A93"/>
        <path style="mix-blend-mode:screen" opacity="0.15" d="M1694.97 0.0593691C1585.69 53.015 1410.78 147.526 1359.49 231.945C1283.14 357.562 1301.12 321.693 1193.33 375.512C1085.55 429.36 977.76 537.058 1013.69 532.563C1049.62 528.068 1179.85 420.371 1278.68 402.421C1377.47 384.472 1444.84 366.522 1561.58 254.36C1651.39 168.095 1964.21 49.9788 2103.97 0.0296021H1695L1694.97 0.0593691Z" fill="url(#paint4_linear_1501_4918)"/>
        <path style="mix-blend-mode:screen" opacity="0.15" d="M2507.16 0.0592041C2346.03 71.6788 2039.76 210.661 1875.95 303.743C1646.89 433.855 1328.06 546.047 1305.61 604.361C1283.17 662.675 1381.97 658.21 1224.77 712.058C1067.57 765.907 645.439 1057.56 456.805 1138.35C421.174 1153.62 385.691 1171.6 351.578 1190.74H751.291C825.351 1131.98 889.767 1083.05 923.88 1062.06C1040.63 990.261 1328.06 851.19 1390.93 819.756C1453.79 788.351 1422.36 756.917 1485.23 703.069C1548.1 649.22 1947.78 487.674 2122.96 384.442C2235.42 318.21 2432.89 211.286 2559.97 143.209V0.0592041H2507.16Z" fill="url(#paint5_linear_1501_4918)"/>
        <path style="mix-blend-mode:screen" opacity="0.15" d="M2559.97 427.872C2289.98 558.49 1822.4 794.632 1843.62 821.571C1860.59 843.123 1512.29 1033.13 1213.07 1190.74H1416.71C1565.99 1106.38 1711.31 1022.23 1781.8 975.675C1958.64 858.899 1980.46 783.648 2049.58 751.202C2090.72 731.913 2353.71 607.844 2559.97 510.505V427.902V427.872Z" fill="url(#paint6_linear_1501_4918)"/>
        <path d="M691.281 938.914L677.857 955.345L669.075 966.091L339.941 951.684L157.081 943.647L182.532 785.107L230.427 750.696L243.912 669.938L370.571 581.768L462.462 725.275L579.238 764.151L691.281 938.914Z" fill="url(#paint7_linear_1501_4918)"/>
        <path d="M579.237 764.151L441.505 783.619L386.138 937.664L279.84 930.192L390.603 763.407L462.461 725.276L579.237 764.151Z" fill="#212184"/>
        <path d="M182.531 785.107L154.073 949.63L44.0542 933.199L100.195 790.703L182.531 785.107Z" fill="#212184"/>
        <path d="M2559.97 1103.14L2359.61 1098.35H2359.43L2305.88 1120.59L2307.87 1120.68L2309.12 1137.26L2308.77 1137.38L2288.97 1143.54L2291.89 1126.57L2284.42 1125.83L2288.91 1096.65L2255.99 1060.76L2190.11 1066.74L2193.54 1049.65L2202.88 1002.98L2208.09 976.991L2118.26 947.075L1705.3 976.098L1360.45 1000.33L1357.38 1000.54C1353.69 1000.8 1351.75 1000.92 1351.75 1000.92L1279.9 953.058L1154.16 961.571L926.59 976.991V976.812L931.174 942.58L932.573 932.102L822.435 916.385L722.983 902.186L654.132 923.142L558.312 914.152L405.606 938.085L0 911.235V1191.14H2559.97V1103.14Z" fill="url(#paint8_linear_1501_4918)"/>
        <path d="M1274.39 1076.85L1123.47 1113.59L1118.71 1114.75L988.951 1152.67L986.451 1155.35L953.618 1190.74H679.255L667.586 1188.57L821.303 1170.62L824.965 1169.43L933.049 1134.72L933.942 1134.66L986.957 1130.7L1112.69 1096.8L1123.2 1095.52L1274.39 1076.85Z" fill="#4A6ABB"/>
        <path d="M986.957 1130.7L986.838 1136.6L986.451 1155.35L953.618 1190.74H940.788L933.942 1134.66L986.957 1130.7Z" fill="#3C3CA6"/>
        <path style="mix-blend-mode:screen" opacity="0.35" d="M932.544 931.68L931.145 942.158L699.021 1021.43C801.688 963.71 821.453 931.561 822.436 915.963L932.574 931.68H932.544Z" fill="url(#paint9_linear_1501_4918)"/>
        <path d="M824.965 1169.43L823.714 1190.74H679.255L667.586 1188.57L821.303 1170.62L824.965 1169.43Z" fill="#3C3CA6"/>
        <path d="M1274.39 1076.85L1123.47 1113.59L1123.2 1095.52L1274.39 1076.85Z" fill="#3C3CA6"/>
        <g style="mix-blend-mode:overlay" opacity="0.5">
            <path d="M2559.97 1102.75L2359.61 1097.96H2359.43L2305.88 1120.2L2307.87 1120.28L2309.12 1136.86L2308.77 1136.98L2288.97 1143.15L2291.89 1126.18L2284.42 1125.43L2288.91 1096.26L2255.99 1060.36L2190.11 1066.35L2193.54 1049.26C2185.32 1052.48 2177.58 1056.88 2173.74 1064.59C2162.79 1086.65 2193.24 1110.64 2188.24 1134.75C2173.56 1146.51 2154.42 1150.71 2137.52 1158.89C2123.94 1165.5 2110.84 1176.9 2107.06 1190.77H2428.7C2450.81 1176.54 2472.37 1161.33 2495.38 1148.65C2516.12 1137.25 2537.26 1129.66 2560 1124.48V1102.78L2559.97 1102.75Z" fill="white"/>
        </g>
        <path d="M827.763 971.955L808.206 979.486L699.021 1021.46L428.051 1024.37L423.556 1024.43L335.177 1050.33L300.231 1060.6L159.73 1101.8L148.091 1105.22L0 1119.03V1190.74H290.348L307.911 1185.15L318.597 1181.72L428.051 1146.9L537.415 1112.04L551.227 1107.63L615.167 1087.27L690.805 1074.83L821.81 1053.25L825.293 1052.68L869.675 1045.39L887.655 1000.5L926.59 976.39L929.567 974.575L932.543 931.68L827.763 971.955Z" fill="#4A6ABB"/>
        <path d="M159.73 1101.8L148.091 1105.22L0 1119.03V1190.74H140.233L160.058 1102.22L159.73 1101.8Z" fill="#2A2A93"/>
        <path d="M699.02 1021.46L690.805 1074.83L615.166 1087.27L551.227 1107.63L559.77 1070.81L537.415 1112.04L428.051 1146.9V1024.37L699.02 1021.46Z" fill="#2A2A93"/>
        <path d="M428.05 1024.38L303.773 1027.44L35.8093 981.064L278.352 1007.97L520.12 1023.69L428.05 1024.38Z" fill="#2A2A93"/>
        <path d="M887.625 1000.5L942.545 1032.41L1154.13 1041.4H926.56L869.675 1045.39L887.625 1000.5Z" fill="#3C3CA6"/>
        <path d="M335.178 1050.33L318.597 1181.72L307.911 1185.15L300.231 1060.6L335.178 1050.33Z" fill="#2A2A93"/>
        <path d="M335.178 1050.33L262.606 1049.11L103.917 1013.21L255.878 1052.12L300.231 1060.6L335.178 1050.33Z" fill="#3C3CA6"/>
        <path d="M827.763 971.568V971.955L825.293 1052.68L821.81 1053.25L809.04 979.575L808.206 979.486L635.14 963.62L827.763 971.568Z" fill="#3C3CA6"/>
        <path d="M2291.89 1126.15L2288.97 1143.12L2165.38 1181.52L2135.73 1190.74H2046.87L2170.71 1158.12L2291.89 1126.15Z" fill="#4A6ABB"/>
        <path d="M2288.88 1096.23L2284.39 1125.4L2220.54 1121.65L2288.88 1096.23Z" fill="#3C3CA6"/>
        <path d="M2354.76 1122.67L2309.12 1136.83L2307.87 1120.25L2354.76 1122.67Z" fill="#4A6ABB"/>
        <path d="M2354.76 1122.67L2308.74 1136.98L2306 1119.99L2354.76 1122.67Z" fill="#3C3CA6"/>
        <path d="M2170.71 1158.12L2165.38 1181.52L2135.73 1190.74H2046.87L2170.71 1158.12Z" fill="#3C3CA6"/>
        <g style="mix-blend-mode:overlay" opacity="0.5">
            <path d="M1357.35 1000.11L1360.42 999.906C1359.31 999.995 1358.27 1000.05 1357.35 1000.11Z" fill="white"/>
        </g>
        <g style="mix-blend-mode:overlay" opacity="0.5">
            <path d="M2208.03 976.569L2202.82 1002.56C2125.76 1018.39 2019.7 1039.5 2027.41 1034.38C2039.37 1026.43 2051.37 995.471 2074.29 972.58C2095.78 951.088 1443.64 994.31 1360.42 999.906L2118.23 946.653L2208.06 976.569H2208.03Z" fill="white"/>
        </g>
        <path d="M2208.03 976.569L2040.27 1028.04L1864.61 1042.03L1589.18 1111.83H1479.36L1305.73 1157.7L1483.38 1121.8L1597.15 1127.79L1872.62 1055.99L2047.86 1045.75L2190.83 1066.7L2208.03 976.569Z" fill="#3C3CA6"/>
        <path style="mix-blend-mode:screen" opacity="0.5" d="M1705.27 975.676C1573.58 990.053 1358.87 1013.69 1343.72 1016.46C1328.03 1019.31 1216.46 982.433 1154.13 961.179L1279.87 952.666L1351.72 1000.53C1351.72 1000.53 1353.66 1000.41 1357.35 1000.14L1360.42 999.936L1705.27 975.705V975.676Z" fill="url(#paint10_linear_1501_4918)"/>
        <path d="M193.01 189.766L154.075 220.664L130.142 210.692L193.01 189.766Z" fill="#5D7EE7"/>
        <path d="M150.085 356.313L114.156 402.184L55.2769 411.144L115.168 336.339L150.085 356.313Z" fill="#2F46CC"/>
        <path d="M243.912 669.938L230.427 750.696L107.162 769.152L123.147 719.292L243.912 669.938Z" fill="#212184"/>
        <path d="M112.162 613.59L22.8313 616.834L28.9336 576.44L112.162 613.59Z" fill="#212184"/>
        <path d="M240.906 348.305L294.814 560.723L260.879 361.284L240.906 348.305Z" fill="#2A2A93"/>
        <path d="M150.085 356.312L164.552 472.463L139.845 369.261L150.085 356.312Z" fill="#2F46CC"/>
        <path d="M68.4345 761.77L0 813.058V910.486L38.5484 910.754H39.3223L69.268 761.174L68.4345 761.77Z" fill="#212184"/>
        <path d="M90.6992 684.375L32.3259 727.27L85.222 705.331L105.166 723.281L90.6992 684.375Z" fill="#212184"/>
        <path d="M130.142 210.692L154.075 220.664L150.086 356.312L150.354 223.432L130.142 210.692Z" fill="#212184"/>
        <path d="M78.4661 510.624L113.651 483.685L134.607 500.146L113.919 467.224L78.4661 510.624Z" fill="#212184"/>
        <path d="M462.462 725.276L390.604 763.407L441.506 783.619L579.239 764.151L462.462 725.276Z" fill="#2F46CC"/>
        <path d="M243.912 669.938L294.814 757.186L282.818 897.776L283.83 759.18L237.929 705.331L243.912 669.938Z" fill="#212184"/>
        <path d="M230.427 750.696L232.689 853.155L217.717 759.418L230.427 750.696Z" fill="#2A2A93"/>
        <g style="mix-blend-mode:overlay" opacity="0.5">
            <path d="M237.929 705.331L283.83 759.179L282.818 897.775L276.835 761.174L237.929 705.331Z" fill="white"/>
        </g>
        <g style="mix-blend-mode:overlay" opacity="0.5">
            <path d="M112.162 613.589L113.651 483.685L134.607 500.146L117.163 488.924L112.162 613.589Z" fill="white"/>
        </g>
        <g style="mix-blend-mode:overlay" opacity="0.5">
            <path d="M114.157 402.183L139.846 369.261L164.553 472.463L139.37 381.971L114.157 402.183Z" fill="white"/>
        </g>
        <path d="M324.819 613.589L330.266 754.447L342.59 596.622L324.819 613.589Z" fill="#2A2A93"/>
        <g style="mix-blend-mode:overlay" opacity="0.5">
            <path d="M243.912 669.939L324.819 613.589L330.266 754.447L322.14 620.198L243.912 669.939Z" fill="white"/>
        </g>
        <path d="M492.675 776.385L445.018 761.115L523.365 771.89L515.357 898.549L492.675 776.385Z" fill="#2A2A93"/>
        <g style="mix-blend-mode:overlay" opacity="0.5">
            <path d="M441.505 783.619L492.674 776.385L515.357 898.549L488.418 780.612L441.505 783.619Z" fill="white"/>
        </g>
        <path d="M510.386 584.656L515.357 647.494L624.156 674.404L510.386 584.656Z" fill="url(#paint11_linear_1501_4918)"/>
        <path d="M437.517 448.531L449.989 621.061L450.495 437.07L437.517 448.531Z" fill="#4556ED"/>
        <path d="M554.799 658.953L536.82 616.059L570.754 662.436L569.266 747.719L554.799 658.953Z" fill="#4556ED"/>
        <path style="mix-blend-mode:screen" opacity="0.2" d="M772.367 859.882L689.852 882.802C718.816 867.621 730.455 845.445 730.455 845.445L772.367 859.882Z" fill="url(#paint12_linear_1501_4918)"/>
        <path style="mix-blend-mode:screen" opacity="0.15" d="M495.204 527.235C483.863 521.073 471.659 511.965 463.74 498.897C445.017 468.237 424.805 462.254 424.805 462.254L468.146 426.176L468.444 426.116L495.175 527.235H495.204Z" fill="url(#paint13_linear_1501_4918)"/>
        <path d="M468.475 426.116L425.045 462.016L387.628 444.066L468.475 426.116Z" fill="#4556ED"/>
        <path style="mix-blend-mode:screen" opacity="0.81" d="M393.103 345.328C414.327 345.328 431.533 328.136 431.533 306.929C431.533 285.721 414.327 268.529 393.103 268.529C371.879 268.529 354.674 285.721 354.674 306.929C354.674 328.136 371.879 345.328 393.103 345.328Z" fill="url(#paint14_radial_1501_4918)"/>
        <path style="mix-blend-mode:screen" opacity="0.81" d="M368.159 273.53C368.159 279.87 363.009 284.99 356.669 284.99C350.328 284.99 345.178 279.87 345.178 273.53C345.178 267.189 350.328 262.069 356.669 262.069C363.009 262.069 368.159 267.189 368.159 273.53Z" fill="url(#paint15_radial_1501_4918)"/>
        <path style="mix-blend-mode:screen" opacity="0.35" d="M2190.5 649C2265.89 649 2327 587.887 2327 512.5C2327 437.113 2265.89 376 2190.5 376C2115.11 376 2054 437.113 2054 512.5C2054 587.887 2115.11 649 2190.5 649Z" fill="url(#paint16_radial_1501_4918)"/>
        <path d="M2286.23 511.072C2286.23 512.517 2286.21 513.962 2286.14 515.384C2284.65 550.941 2264.62 581.68 2235.47 598.266C2234.11 599.045 2232.69 599.802 2231.27 600.514C2217.64 607.464 2202.2 611.341 2185.85 611.341C2166.58 611.341 2148.59 605.927 2133.29 596.522C2131.32 595.283 2129.35 593.976 2127.47 592.622C2117.9 585.786 2109.55 577.276 2102.92 567.526C2101.82 565.943 2100.76 564.292 2099.75 562.64C2090.72 547.592 2085.49 529.928 2085.49 511.072C2085.49 501.85 2086.73 492.926 2089.06 484.439C2089.41 483.2 2089.78 481.915 2090.19 480.699C2103.04 440.165 2141.02 410.802 2185.85 410.802C2208.1 410.802 2228.68 418.051 2245.31 430.301C2247.44 431.838 2249.51 433.489 2251.5 435.21C2261 443.445 2268.96 453.424 2274.85 464.642C2276.73 468.289 2278.46 472.051 2279.88 475.928C2282.54 482.97 2284.4 490.38 2285.38 498.088C2285.93 502.332 2286.21 506.667 2286.21 511.049L2286.23 511.072Z" fill="url(#paint17_linear_1501_4918)"/>
        <g style="mix-blend-mode:multiply" opacity="0.5">
            <path d="M2208.95 577.299C2155.77 577.299 2112.67 534.218 2112.67 481.089C2112.67 462.004 2118.27 444.225 2127.86 429.269C2102.25 447.437 2085.51 477.281 2085.51 511.072C2085.51 566.448 2130.45 611.364 2185.87 611.364C2228.97 611.364 2265.72 584.203 2279.95 546.101C2262.35 565.278 2237.05 577.322 2208.95 577.322V577.299Z" fill="#FF4773"/>
        </g>
        <path d="M2190.69 607.052C2138.66 607.052 2095.35 569.798 2085.97 520.546C2090.74 571.495 2133.64 611.364 2185.87 611.364C2207.69 611.364 2227.87 604.391 2244.34 592.577C2228.58 601.776 2210.26 607.052 2190.69 607.052V607.052Z" fill="#FF819F"/>
        <g style="mix-blend-mode:lighten" opacity="0.2">
            <path d="M2261.22 513.909C2278.22 493.938 2270.68 459.602 2244.38 437.218C2218.08 414.834 2182.98 412.879 2165.98 432.851C2148.98 452.822 2156.53 487.158 2182.83 509.542C2209.13 531.926 2244.23 533.881 2261.22 513.909Z" fill="white"/>
        </g>
        <path d="M2209.73 428.81C2215.3 433.559 2216.89 440.831 2213.26 445.052C2209.66 449.273 2202.23 448.86 2196.65 444.111C2191.08 439.363 2189.5 432.091 2193.12 427.87C2196.72 423.649 2204.15 424.062 2209.73 428.81V428.81Z" fill="white" fill-opacity="0.4"/>
        <path d="M2237.51 441.427C2241.18 444.546 2242.21 449.341 2239.85 452.117C2237.49 454.892 2232.58 454.617 2228.91 451.497C2225.24 448.377 2224.2 443.583 2226.57 440.807C2228.93 438.032 2233.84 438.307 2237.51 441.427Z" fill="white" fill-opacity="0.4"/>
        <g style="mix-blend-mode:lighten" opacity="0.25">
            <path d="M2279.9 475.952C2260.36 479.117 2240.19 480.264 2220.85 486.068C2195.99 493.524 2172.11 504.42 2150.84 519.377C2132.31 532.406 2115.84 548.831 2102.92 567.504C2101.82 565.921 2100.77 564.27 2099.76 562.618C2100.6 561.127 2101.48 559.613 2102.35 558.145C2112.21 541.215 2122.28 523.987 2136.99 511.049C2154.01 496.07 2175.87 488.018 2197.18 480.287C2218.26 472.625 2249.3 461.041 2274.88 464.642C2276.76 468.29 2278.48 472.052 2279.9 475.929V475.952Z" fill="#76FFFF"/>
        </g>
        <g style="mix-blend-mode:lighten" opacity="0.25">
            <path d="M2286.23 511.071C2286.23 512.517 2286.21 513.962 2286.14 515.384C2268.25 511.966 2249.51 514.329 2235.08 525.065C2228.19 530.203 2222.67 536.925 2217.21 543.554C2215.14 546.077 2213.01 548.738 2212.41 551.95C2211.24 558.304 2216.33 563.879 2220.42 568.902C2227.41 577.528 2232.28 587.621 2235.47 598.265C2234.11 599.045 2232.69 599.802 2231.27 600.513C2229.69 593.287 2227.23 586.383 2223.4 580.051C2215.39 566.769 2200 556.859 2184.75 559.589C2176.58 561.034 2169.45 565.783 2162.59 570.417C2151.69 577.757 2140.29 585.786 2133.29 596.545C2131.32 595.306 2129.35 593.999 2127.47 592.645C2131.04 584.639 2136.25 577.551 2143.27 572.206C2161.03 558.763 2186.31 558.97 2204.18 545.733C2213.01 539.218 2219.34 529.882 2227.16 522.128C2240.54 508.892 2258.68 500.749 2277.4 498.867C2279.35 498.684 2282.24 498.34 2285.41 498.133C2285.96 502.377 2286.23 506.713 2286.23 511.094V511.071Z" fill="#76FFFF"/>
        </g>
        <g style="mix-blend-mode:lighten" opacity="0.25">
            <path d="M2106.34 485.104C2104.27 484.989 2102.26 484.828 2100.21 484.668C2097.64 484.461 2093.36 484.645 2089.07 484.438C2089.41 483.2 2089.78 481.915 2090.19 480.699C2095.51 482.351 2100.93 484.599 2106.32 485.104H2106.34Z" fill="#76FFFF"/>
        </g>
        <g style="mix-blend-mode:lighten" opacity="0.25">
            <path d="M2251.52 435.21C2212.85 430.507 2172.11 442.803 2143.2 469C2137.54 474.139 2132.1 479.897 2125.01 482.81C2119.92 484.897 2114.41 485.356 2108.89 485.219C2109.39 485.219 2109.92 485.173 2110.42 485.127C2118.8 484.324 2126.04 478.956 2131.85 472.854C2137.63 466.775 2142.49 459.756 2148.75 454.158C2163.12 441.358 2183.1 437.435 2202.04 434.017C2216.13 431.448 2231.2 429.131 2245.33 430.301C2247.46 431.838 2249.53 433.49 2251.52 435.21V435.21Z" fill="#76FFFF"/>
        </g>
        <g style="mix-blend-mode:overlay" opacity="0.5">
            <path d="M2043.98 492.225C2039.23 488.236 2034.52 484.184 2029.91 480.042C2029.84 480.361 2029.78 480.692 2029.72 481.023C2034.23 485.05 2038.82 488.988 2043.45 492.862C2048.24 496.864 2053.1 500.763 2058.02 504.612C2058.29 504.497 2058.56 504.357 2058.84 504.217C2053.83 500.292 2048.87 496.303 2043.98 492.225V492.225ZM2410.51 619.049C2409.51 613.455 2407.37 608.128 2404.83 603.069C2399.68 592.95 2392.89 583.762 2385.64 575.045C2385.48 574.842 2385.3 574.638 2385.12 574.434C2379.08 567.31 2372.69 560.492 2366.06 553.942C2364.89 552.795 2363.73 551.648 2362.55 550.514C2354.31 542.562 2345.7 534.967 2336.95 527.588C2333.43 524.657 2329.89 521.765 2326.31 518.923C2324.6 517.521 2322.87 516.17 2321.16 514.832C2320.81 514.552 2320.48 514.284 2320.14 514.029C2318.04 512.373 2315.93 510.754 2313.81 509.148C2305.39 502.726 2296.83 496.507 2288.15 490.466C2286.33 489.205 2284.51 487.93 2282.68 486.681C2282.65 486.656 2282.61 486.643 2282.59 486.618C2282.36 486.465 2282.13 486.299 2281.9 486.159C2278.94 484.12 2275.98 482.119 2273 480.157C2266.76 476.002 2260.46 471.937 2254.1 467.961C2251.37 466.215 2248.62 464.52 2245.85 462.838C2242.43 460.723 2239.01 458.658 2235.55 456.619C2232.01 454.504 2228.47 452.414 2224.91 450.362C2214.83 444.589 2204.68 438.995 2194.4 433.592C2193.2 432.967 2192.02 432.356 2190.82 431.731C2182.15 427.207 2173.41 422.862 2164.59 418.643C2162.13 417.471 2159.68 416.311 2157.21 415.177C2156.74 414.948 2156.27 414.731 2155.79 414.527C2155 414.158 2154.2 413.788 2153.4 413.444C2150.14 411.928 2146.86 410.449 2143.57 409.009C2138.51 406.754 2133.41 404.575 2128.28 402.446C2119.52 398.827 2110.7 395.374 2101.81 392.137C2099.84 391.436 2097.87 390.722 2095.9 390.034C2092.08 388.696 2088.25 387.409 2084.41 386.147C2068.61 380.999 2052.54 376.641 2036.16 373.748C2024.95 371.836 2013.56 370.549 2002.13 371.148C1996.43 371.479 1990.71 372.295 1985.28 374.232C1982.57 375.213 1979.96 376.513 1977.62 378.234C1975.29 379.954 1973.25 382.108 1971.78 384.618C1970.32 387.154 1969.48 389.983 1969.16 392.85C1968.84 395.731 1969.03 398.623 1969.53 401.44C1970.55 407.085 1972.71 412.437 1975.28 417.509C1980.15 427.016 1986.45 435.669 1993.22 443.863C1993.65 444.411 1994.11 444.972 1994.58 445.532C2005.37 458.263 2017.25 469.975 2029.7 481.062C2034.22 485.089 2038.81 489.026 2043.43 492.9C2048.23 496.902 2053.09 500.801 2058.01 504.65C2060.68 506.753 2063.36 508.83 2066.09 510.869C2071.09 514.666 2076.16 518.413 2081.27 522.07C2086.77 526.034 2092.33 529.895 2097.93 533.718C2108.86 541.16 2119.96 548.322 2131.21 555.229C2137.87 559.358 2144.59 563.36 2151.36 567.297C2151.38 567.323 2151.42 567.336 2151.45 567.348C2152.87 568.177 2154.26 569.005 2155.68 569.808C2175.39 581.086 2195.49 591.701 2215.99 601.45C2216.61 601.743 2217.23 602.036 2217.86 602.317C2222.92 604.725 2228.04 607.07 2233.16 609.364C2235.41 610.371 2237.66 611.377 2239.93 612.346C2245.96 614.984 2252.02 617.533 2258.13 619.979C2260.57 620.961 2263.03 621.942 2265.48 622.898C2268.53 624.083 2271.61 625.255 2274.67 626.377C2276.04 626.886 2277.4 627.383 2278.77 627.893C2291.01 632.302 2303.38 636.38 2315.94 639.808C2325.31 642.357 2334.77 644.562 2344.34 646.257C2355.52 648.168 2366.89 649.442 2378.27 648.856C2383.93 648.512 2389.62 647.709 2394.99 645.785C2397.66 644.817 2400.23 643.542 2402.53 641.847C2404.82 640.165 2406.8 638.062 2408.24 635.603C2409.68 633.143 2410.52 630.365 2410.84 627.549C2411.16 624.733 2410.98 621.878 2410.49 619.087L2410.51 619.049ZM2410.69 627.498C2410.38 630.302 2409.54 633.041 2408.15 635.501C2406.71 637.935 2404.74 640.038 2402.45 641.694C2400.18 643.377 2397.61 644.638 2394.95 645.607C2389.6 647.518 2383.93 648.321 2378.27 648.652C2366.91 649.226 2355.56 647.939 2344.37 646.027C2334.86 644.32 2325.45 642.128 2316.15 639.579C2303.55 636.151 2291.14 632.048 2278.87 627.6C2277.58 627.128 2276.31 626.657 2275.03 626.185C2271.95 625.026 2268.88 623.853 2265.83 622.655C2263.39 621.7 2260.93 620.718 2258.5 619.737C2252.42 617.278 2246.37 614.716 2240.37 612.078C2238.21 611.148 2236.07 610.18 2233.92 609.211C2228.69 606.866 2223.49 604.458 2218.32 601.998C2217.62 601.667 2216.9 601.335 2216.21 601.004C2195.74 591.192 2175.69 580.538 2156.02 569.209C2154.66 568.432 2153.31 567.641 2151.96 566.851C2150.96 566.265 2149.95 565.679 2148.95 565.093C2143.25 561.741 2137.59 558.326 2131.95 554.847C2120.59 547.838 2109.39 540.587 2098.37 533.055C2092.6 529.118 2086.89 525.116 2081.22 521.013C2076.15 517.355 2071.1 513.621 2066.11 509.824C2063.68 507.963 2061.25 506.103 2058.85 504.204C2053.84 500.279 2048.88 496.29 2044 492.212C2039.24 488.223 2034.54 484.171 2029.92 480.029C2017.65 469.044 2005.95 457.448 1995.34 444.883C1994.89 444.347 1994.44 443.812 1994 443.251C1987.26 435.07 1980.99 426.43 1976.19 417.012C1973.67 411.991 1971.55 406.715 1970.55 401.223C1969.55 395.756 1969.91 389.907 1972.7 385.09C1975.5 380.285 1980.42 377.048 1985.66 375.188C1990.94 373.302 1996.58 372.499 2002.22 372.168C2013.51 371.594 2024.84 372.869 2035.99 374.793C2052.08 377.647 2067.89 381.929 2083.45 386.988C2087.1 388.161 2090.73 389.397 2094.37 390.659C2096.73 391.474 2099.08 392.328 2101.44 393.169C2110.05 396.317 2118.58 399.656 2127.04 403.173C2132.16 405.288 2137.26 407.467 2142.31 409.723C2145.68 411.201 2149.03 412.705 2152.38 414.247C2153.24 414.629 2154.11 415.024 2154.96 415.432C2155.05 415.47 2155.15 415.509 2155.24 415.56C2158.2 416.923 2161.15 418.312 2164.09 419.714C2173.42 424.174 2182.67 428.826 2191.85 433.617C2192.24 433.821 2192.64 434.025 2193.05 434.242C2203.58 439.76 2214 445.507 2224.3 451.433C2228.08 453.599 2231.82 455.791 2235.57 458.008C2238.67 459.843 2241.77 461.679 2244.85 463.565C2247.71 465.298 2250.58 467.044 2253.43 468.828C2259.67 472.702 2265.87 476.652 2271.99 480.692C2275.07 482.731 2278.16 484.783 2281.22 486.847C2281.49 487.026 2281.77 487.217 2282.04 487.395C2282.24 487.535 2282.46 487.675 2282.66 487.828C2284.29 488.924 2285.9 490.033 2287.51 491.154C2296.32 497.22 2305.01 503.49 2313.56 509.951C2315.66 511.531 2317.74 513.112 2319.83 514.743C2320.26 515.061 2320.7 515.405 2321.15 515.762C2322.87 517.088 2324.6 518.438 2326.3 519.815C2329.74 522.529 2333.14 525.282 2336.52 528.085C2345.26 535.375 2353.82 542.881 2362.04 550.743C2363.36 551.98 2364.65 553.241 2365.94 554.516C2372.49 560.938 2378.79 567.603 2384.75 574.587C2384.95 574.816 2385.16 575.045 2385.35 575.275C2392.61 583.94 2399.42 593.078 2404.61 603.145C2407.16 608.192 2409.31 613.48 2410.34 619.036C2410.83 621.814 2411.02 624.656 2410.71 627.46L2410.69 627.498Z" fill="white"/>
        </g>
        <path opacity="0.85" d="M680.06 632.522C680.06 635.29 677.827 637.522 675.059 637.522C672.29 637.522 670.058 635.29 670.058 632.522C670.058 629.753 672.29 627.551 675.059 627.551C677.827 627.551 680.06 629.783 680.06 632.522Z" fill="#AFF1FF"/>
        <path opacity="0.85" d="M1075.28 74.0907C1075.28 76.859 1073.05 79.0915 1070.28 79.0915C1067.51 79.0915 1065.28 76.859 1065.28 74.0907C1065.28 71.3223 1067.51 69.1196 1070.28 69.1196C1073.05 69.1196 1075.28 71.3521 1075.28 74.0907V74.0907Z" fill="#AFF1FF"/>
        <path opacity="0.85" d="M923.584 54.1471C923.584 56.9155 921.352 59.148 918.583 59.148C915.815 59.148 913.583 56.9155 913.583 54.1471C913.583 51.3788 915.815 49.1462 918.583 49.1462C921.352 49.1462 923.584 51.3788 923.584 54.1471Z" fill="#AFF1FF"/>
        <path opacity="0.85" d="M1522.38 707.325C1522.38 710.094 1520.15 712.297 1517.38 712.297C1514.61 712.297 1512.38 710.064 1512.38 707.325C1512.38 704.587 1514.61 702.325 1517.38 702.325C1520.15 702.325 1522.38 704.557 1522.38 707.325Z" fill="#AFF1FF"/>
        <path opacity="0.85" d="M1471.51 779.124C1471.51 781.893 1469.27 784.095 1466.51 784.095C1463.74 784.095 1461.5 781.863 1461.5 779.124C1461.5 776.386 1463.74 774.123 1466.51 774.123C1469.27 774.123 1471.51 776.356 1471.51 779.124Z" fill="#AFF1FF"/>
        <path opacity="0.85" d="M1312.82 645.5C1312.82 648.268 1310.59 650.5 1307.82 650.5C1305.05 650.5 1302.82 648.268 1302.82 645.5C1302.82 642.731 1305.05 640.529 1307.82 640.529C1310.59 640.529 1312.82 642.761 1312.82 645.5Z" fill="#AFF1FF"/>
        <path opacity="0.85" d="M781.862 753.197C781.862 755.965 779.629 758.197 776.861 758.197C774.092 758.197 771.86 755.965 771.86 753.197C771.86 750.428 774.092 748.225 776.861 748.225C779.629 748.225 781.862 750.458 781.862 753.197Z" fill="#AFF1FF"/>
        <path opacity="0.85" d="M780.85 350.299C780.85 353.067 778.618 355.3 775.849 355.3C773.081 355.3 770.848 353.067 770.848 350.299C770.848 347.531 773.081 345.298 775.849 345.298C778.618 345.298 780.85 347.531 780.85 350.299Z" fill="#AFF1FF"/>
        <path opacity="0.25" d="M775.373 98.5289C775.373 100.583 773.706 102.28 771.623 102.28C769.539 102.28 767.872 100.613 767.872 98.5289C767.872 96.4452 769.539 94.7782 771.623 94.7782C773.706 94.7782 775.373 96.4452 775.373 98.5289Z" fill="#AFF1FF"/>
        <path opacity="0.25" d="M654.102 110.495C654.102 112.549 652.435 114.246 650.352 114.246C648.268 114.246 646.601 112.579 646.601 110.495C646.601 108.412 648.268 106.745 650.352 106.745C652.435 106.745 654.102 108.412 654.102 110.495Z" fill="#AFF1FF"/>
        <path opacity="0.25" d="M660.829 63.374C662.901 63.374 664.58 61.6948 664.58 59.6233C664.58 57.5519 662.901 55.8727 660.829 55.8727C658.758 55.8727 657.079 57.5519 657.079 59.6233C657.079 61.6948 658.758 63.374 660.829 63.374Z" fill="#AFF1FF"/>
        <path opacity="0.25" d="M595.699 39.4411C597.771 39.4411 599.45 37.7618 599.45 35.6904C599.45 33.619 597.771 31.9398 595.699 31.9398C593.628 31.9398 591.948 33.619 591.948 35.6904C591.948 37.7618 593.628 39.4411 595.699 39.4411Z" fill="#AFF1FF"/>
        <path opacity="0.25" d="M558.282 551.018C558.282 553.072 556.615 554.769 554.531 554.769C552.448 554.769 550.781 553.102 550.781 551.018C550.781 548.934 552.448 547.268 554.531 547.268C556.615 547.268 558.282 548.934 558.282 551.018Z" fill="#AFF1FF"/>
        <path opacity="0.25" d="M790.079 737.986C792.15 737.986 793.829 736.307 793.829 734.236C793.829 732.164 792.15 730.485 790.079 730.485C788.007 730.485 786.328 732.164 786.328 734.236C786.328 736.307 788.007 737.986 790.079 737.986Z" fill="#AFF1FF"/>
        <path opacity="0.25" d="M768.616 457.015C768.616 459.069 766.949 460.765 764.865 460.765C762.782 460.765 761.115 459.098 761.115 457.015C761.115 454.931 762.782 453.264 764.865 453.264C766.949 453.264 768.616 454.931 768.616 457.015Z" fill="#AFF1FF"/>
        <path opacity="0.25" d="M712.743 557.984C712.743 560.038 711.076 561.735 708.993 561.735C706.909 561.735 705.242 560.068 705.242 557.984C705.242 555.9 706.909 554.233 708.993 554.233C711.076 554.233 712.743 555.9 712.743 557.984Z" fill="#AFF1FF"/>
        <path opacity="0.25" d="M671.07 650.501C673.142 650.501 674.821 648.821 674.821 646.75C674.821 644.678 673.142 642.999 671.07 642.999C668.999 642.999 667.32 644.678 667.32 646.75C667.32 648.821 668.999 650.501 671.07 650.501Z" fill="#AFF1FF"/>
        <path opacity="0.25" d="M660.591 635.527C660.591 637.581 658.924 639.278 656.84 639.278C654.757 639.278 653.09 637.611 653.09 635.527C653.09 633.444 654.757 631.777 656.84 631.777C658.924 631.777 660.591 633.444 660.591 635.527Z" fill="#AFF1FF"/>
        <path opacity="0.5" d="M595.222 392.211C595.222 394.979 592.99 397.212 590.222 397.212C587.453 397.212 585.221 394.979 585.221 392.211C585.221 389.442 587.453 387.21 590.222 387.21C592.99 387.21 595.222 389.442 595.222 392.211Z" fill="#AFF1FF"/>
        <path opacity="0.85" d="M637.135 397.182C637.135 399.95 634.903 402.183 632.134 402.183C629.366 402.183 627.133 399.95 627.133 397.182C627.133 394.414 629.366 392.181 632.134 392.181C634.903 392.181 637.135 394.414 637.135 397.182Z" fill="#AFF1FF"/>
        <path opacity="0.5" d="M554.293 439.064C554.293 441.832 552.06 444.065 549.292 444.065C546.524 444.065 544.291 441.832 544.291 439.064C544.291 436.295 546.524 434.063 549.292 434.063C552.06 434.063 554.293 436.295 554.293 439.064Z" fill="#AFF1FF"/>
        <path opacity="0.85" d="M669.075 493.925C669.075 496.693 666.842 498.896 664.074 498.896C661.306 498.896 659.073 496.663 659.073 493.925C659.073 491.186 661.306 488.924 664.074 488.924C666.842 488.924 669.075 491.156 669.075 493.925Z" fill="#AFF1FF"/>
        <path opacity="0.25" d="M585.994 443.559C585.994 445.613 584.328 447.31 582.244 447.31C580.16 447.31 578.493 445.643 578.493 443.559C578.493 441.476 580.16 439.809 582.244 439.809C584.328 439.809 585.994 441.476 585.994 443.559Z" fill="#AFF1FF"/>
        <path opacity="0.25" d="M627.906 485.948C629.978 485.948 631.657 484.269 631.657 482.197C631.657 480.126 629.978 478.446 627.906 478.446C625.835 478.446 624.156 480.126 624.156 482.197C624.156 484.269 625.835 485.948 627.906 485.948Z" fill="#AFF1FF"/>
        <path opacity="0.25" d="M640.112 430.104C640.112 432.158 638.445 433.855 636.361 433.855C634.277 433.855 632.61 432.188 632.61 430.104C632.61 428.02 634.277 426.353 636.361 426.353C638.445 426.353 640.112 428.02 640.112 430.104Z" fill="#AFF1FF"/>
        <path opacity="0.5" d="M1869.37 872.95C1869.58 870.212 1871.96 868.158 1874.73 868.336C1877.47 868.545 1879.55 870.926 1879.35 873.665C1879.14 876.403 1876.76 878.457 1873.99 878.279C1871.25 878.07 1869.16 875.689 1869.37 872.95Z" fill="#AFF1FF"/>
        <path opacity="0.85" d="M1827.94 864.883C1828.15 862.144 1830.53 860.09 1833.3 860.269C1836.03 860.477 1838.12 862.859 1837.91 865.597C1837.7 868.336 1835.32 870.39 1832.55 870.211C1829.81 870.003 1827.73 867.622 1827.94 864.883Z" fill="#AFF1FF"/>
        <path opacity="0.5" d="M1913.64 829.252C1913.85 826.513 1916.23 824.459 1919 824.638C1921.74 824.846 1923.82 827.228 1923.61 829.966C1923.4 832.705 1921.02 834.759 1918.25 834.58C1915.51 834.372 1913.43 831.99 1913.64 829.252Z" fill="#AFF1FF"/>
        <path opacity="0.85" d="M1803.26 766.056C1803.47 763.318 1805.85 761.264 1808.62 761.442C1811.36 761.651 1813.44 764.032 1813.23 766.771C1813.03 769.509 1810.64 771.563 1807.88 771.385C1805.14 771.176 1803.05 768.795 1803.26 766.056Z" fill="#AFF1FF"/>
        <path opacity="0.25" d="M1882.38 822.406C1882.53 820.352 1884.32 818.804 1886.4 818.953C1888.46 819.101 1890 820.887 1889.85 822.971C1889.71 825.025 1887.92 826.573 1885.84 826.424C1883.78 826.275 1882.23 824.489 1882.38 822.406Z" fill="#AFF1FF"/>
        <path opacity="0.25" d="M1839.73 780.493C1839.88 778.439 1841.66 776.891 1843.75 777.04C1845.8 777.189 1847.35 778.975 1847.2 781.059C1847.05 783.113 1845.26 784.661 1843.18 784.512C1841.1 784.363 1839.58 782.577 1839.73 780.493Z" fill="#AFF1FF"/>
        <path opacity="0.25" d="M1827.4 831.842C1827.55 829.788 1829.34 828.24 1831.42 828.389C1833.5 828.538 1835.02 830.324 1834.87 832.407C1834.72 834.461 1832.94 836.009 1830.85 835.86C1828.8 835.712 1827.25 833.926 1827.4 831.842Z" fill="#AFF1FF"/>
        <path opacity="0.5" d="M2104.24 794.067C2104.24 796.836 2102 799.068 2099.23 799.068C2096.47 799.068 2094.23 796.836 2094.23 794.067C2094.23 791.299 2096.47 789.066 2099.23 789.066C2102 789.066 2104.24 791.299 2104.24 794.067Z" fill="#AFF1FF"/>
        <path opacity="0.85" d="M2146.18 799.068C2146.18 801.836 2143.94 804.069 2141.18 804.069C2138.41 804.069 2136.18 801.836 2136.18 799.068C2136.18 796.3 2138.41 794.067 2141.18 794.067C2143.94 794.067 2146.18 796.3 2146.18 799.068Z" fill="#AFF1FF"/>
        <path opacity="0.5" d="M2063.33 840.95C2063.33 843.719 2061.1 845.921 2058.33 845.921C2055.57 845.921 2053.33 843.689 2053.33 840.95C2053.33 838.212 2055.57 835.949 2058.33 835.949C2061.1 835.949 2063.33 838.182 2063.33 840.95Z" fill="#AFF1FF"/>
        <path opacity="0.85" d="M2178.12 895.781C2178.12 898.55 2175.88 900.782 2173.12 900.782C2170.35 900.782 2168.11 898.55 2168.11 895.781C2168.11 893.013 2170.35 890.781 2173.12 890.781C2175.88 890.781 2178.12 893.013 2178.12 895.781Z" fill="#AFF1FF"/>
        <path opacity="0.25" d="M2091.29 849.196C2093.36 849.196 2095.04 847.517 2095.04 845.445C2095.04 843.374 2093.36 841.695 2091.29 841.695C2089.21 841.695 2087.54 843.374 2087.54 845.445C2087.54 847.517 2089.21 849.196 2091.29 849.196Z" fill="#AFF1FF"/>
        <path opacity="0.25" d="M2136.95 887.834C2139.02 887.834 2140.7 886.154 2140.7 884.083C2140.7 882.012 2139.02 880.332 2136.95 880.332C2134.88 880.332 2133.2 882.012 2133.2 884.083C2133.2 886.154 2134.88 887.834 2136.95 887.834Z" fill="#AFF1FF"/>
        <path opacity="0.25" d="M2149.15 831.961C2149.15 834.015 2147.49 835.711 2145.4 835.711C2143.32 835.711 2141.65 834.044 2141.65 831.961C2141.65 829.877 2143.32 828.21 2145.4 828.21C2147.49 828.21 2149.15 829.877 2149.15 831.961Z" fill="#AFF1FF"/>
        <path opacity="0.5" d="M2402.41 58.3732C2402.41 62.6299 2398.96 66.0829 2394.7 66.0829C2390.45 66.0829 2386.99 62.6299 2386.99 58.3732C2386.99 54.1165 2390.45 50.6635 2394.7 50.6635C2398.96 50.6635 2402.41 54.1165 2402.41 58.3732Z" fill="#AFF1FF"/>
        <path opacity="0.85" d="M2467.13 66.0827C2467.13 70.3394 2463.67 73.7924 2459.42 73.7924C2455.16 73.7924 2451.71 70.3394 2451.71 66.0827C2451.71 61.826 2455.16 58.373 2459.42 58.373C2463.67 58.373 2467.13 61.826 2467.13 66.0827Z" fill="#AFF1FF"/>
        <path opacity="0.5" d="M2339.22 130.737C2339.22 134.993 2335.77 138.446 2331.51 138.446C2327.25 138.446 2323.8 134.993 2323.8 130.737C2323.8 126.48 2327.25 123.027 2331.51 123.027C2335.77 123.027 2339.22 126.48 2339.22 130.737V130.737Z" fill="#AFF1FF"/>
        <path opacity="0.85" d="M2516.45 215.424C2516.45 219.68 2513 223.133 2508.74 223.133C2504.49 223.133 2501.03 219.68 2501.03 215.424C2501.03 211.167 2504.49 207.714 2508.74 207.714C2513 207.714 2516.45 211.167 2516.45 215.424Z" fill="#AFF1FF"/>
        <path opacity="0.25" d="M2382.38 143.447C2385.57 143.447 2388.16 140.862 2388.16 137.672C2388.16 134.483 2385.57 131.898 2382.38 131.898C2379.19 131.898 2376.61 134.483 2376.61 137.672C2376.61 140.862 2379.19 143.447 2382.38 143.447Z" fill="#AFF1FF"/>
        <path opacity="0.25" d="M2458.64 197.355C2458.64 200.541 2456.05 203.13 2452.87 203.13C2449.68 203.13 2447.09 200.541 2447.09 197.355C2447.09 194.17 2449.68 191.581 2452.87 191.581C2456.05 191.581 2458.64 194.17 2458.64 197.355Z" fill="#AFF1FF"/>
        <path opacity="0.25" d="M2465.97 122.67C2469.16 122.67 2471.74 120.084 2471.74 116.895C2471.74 113.705 2469.16 111.12 2465.97 111.12C2462.78 111.12 2460.19 113.705 2460.19 116.895C2460.19 120.084 2462.78 122.67 2465.97 122.67Z" fill="#AFF1FF"/>
        <path opacity="0.5" d="M712.475 98.5287C712.475 101.833 709.796 104.512 706.492 104.512C703.188 104.512 700.509 101.833 700.509 98.5287C700.509 95.2246 703.188 92.5455 706.492 92.5455C709.796 92.5455 712.475 95.2246 712.475 98.5287Z" fill="#AFF1FF"/>
        <path opacity="0.5" d="M1465.49 138.893C1465.49 142.198 1462.81 144.877 1459.51 144.877C1456.21 144.877 1453.53 142.198 1453.53 138.893C1453.53 135.589 1456.21 132.91 1459.51 132.91C1462.81 132.91 1465.49 135.589 1465.49 138.893Z" fill="#AFF1FF"/>
        <path opacity="0.5" d="M1469.48 47.151C1469.48 50.4551 1466.8 53.1342 1463.5 53.1342C1460.19 53.1342 1457.52 50.4551 1457.52 47.151C1457.52 43.8468 1460.19 41.1678 1463.5 41.1678C1466.8 41.1678 1469.48 43.8468 1469.48 47.151V47.151Z" fill="#AFF1FF"/>
        <path opacity="0.5" d="M1900.66 43.1618C1900.66 46.4659 1897.98 49.145 1894.68 49.145C1891.37 49.145 1888.69 46.4659 1888.69 43.1618C1888.69 39.8576 1891.37 37.1786 1894.68 37.1786C1897.98 37.1786 1900.66 39.8576 1900.66 43.1618V43.1618Z" fill="#AFF1FF"/>
        <path opacity="0.5" d="M2164.13 39.1737C2164.13 42.4779 2161.45 45.1569 2158.14 45.1569C2154.84 45.1569 2152.16 42.4779 2152.16 39.1737C2152.16 35.8696 2154.84 33.1906 2158.14 33.1906C2161.45 33.1906 2164.13 35.8696 2164.13 39.1737Z" fill="#AFF1FF"/>
        <path opacity="0.5" d="M1784.86 39.1737C1784.86 42.4779 1782.18 45.1569 1778.88 45.1569C1775.58 45.1569 1772.9 42.4779 1772.9 39.1737C1772.9 35.8696 1775.58 33.1906 1778.88 33.1906C1782.18 33.1906 1784.86 35.8696 1784.86 39.1737Z" fill="#AFF1FF"/>
        <path opacity="0.5" d="M672.051 156.843C672.051 160.147 669.372 162.826 666.068 162.826C662.764 162.826 660.085 160.147 660.085 156.843C660.085 153.538 662.764 150.859 666.068 150.859C669.372 150.859 672.051 153.538 672.051 156.843Z" fill="#AFF1FF"/>
        <path opacity="0.85" d="M799.812 151.366C799.812 154.135 797.579 156.367 794.811 156.367C792.043 156.367 789.81 154.135 789.81 151.366C789.81 148.598 792.043 146.395 794.811 146.395C797.579 146.395 799.812 148.628 799.812 151.366Z" fill="#AFF1FF"/>
        <path opacity="0.85" d="M695.031 278.025C695.031 280.794 692.798 283.026 690.03 283.026C687.262 283.026 685.029 280.794 685.029 278.025C685.029 275.257 687.262 273.025 690.03 273.025C692.798 273.025 695.031 275.257 695.031 278.025Z" fill="#AFF1FF"/>
        <path opacity="0.85" d="M780.344 180.776C780.344 183.545 778.112 185.777 775.343 185.777C772.575 185.777 770.343 183.545 770.343 180.776C770.343 178.008 772.575 175.775 775.343 175.775C778.112 175.775 780.344 178.008 780.344 180.776Z" fill="#AFF1FF"/>
        <path opacity="0.25" d="M707.236 166.577C709.308 166.577 710.987 164.898 710.987 162.827C710.987 160.755 709.308 159.076 707.236 159.076C705.165 159.076 703.486 160.755 703.486 162.827C703.486 164.898 705.165 166.577 707.236 166.577Z" fill="#AFF1FF"/>
        <path opacity="0.5" d="M724.948 196.731C724.948 200.036 722.269 202.715 718.965 202.715C715.66 202.715 712.981 200.036 712.981 196.731C712.981 193.427 715.66 190.748 718.965 190.748C722.269 190.748 724.948 193.427 724.948 196.731Z" fill="#AFF1FF"/>
        <path opacity="0.5" d="M815.766 224.177C815.766 227.481 813.087 230.16 809.783 230.16C806.479 230.16 803.8 227.481 803.8 224.177C803.8 220.873 806.479 218.194 809.783 218.194C813.087 218.194 815.766 220.873 815.766 224.177Z" fill="#AFF1FF"/>
        <path opacity="0.85" d="M1344.73 48.1633C1344.73 50.9316 1342.5 53.1642 1339.73 53.1642C1336.96 53.1642 1334.73 50.9316 1334.73 48.1633C1334.73 45.3949 1336.96 43.1624 1339.73 43.1624C1342.5 43.1624 1344.73 45.3949 1344.73 48.1633Z" fill="#AFF1FF"/>
        <path opacity="0.85" d="M1239.95 174.793C1239.95 177.561 1237.72 179.793 1234.95 179.793C1232.18 179.793 1229.95 177.561 1229.95 174.793C1229.95 172.024 1232.18 169.792 1234.95 169.792C1237.72 169.792 1239.95 172.024 1239.95 174.793Z" fill="#AFF1FF"/>
        <path opacity="0.85" d="M1325.29 77.5733C1325.29 80.3416 1323.06 82.5444 1320.29 82.5444C1317.52 82.5444 1315.29 80.3118 1315.29 77.5733C1315.29 74.8347 1317.52 72.5724 1320.29 72.5724C1323.06 72.5724 1325.29 74.8049 1325.29 77.5733Z" fill="#AFF1FF"/>
        <path opacity="0.25" d="M1252.18 63.374C1254.25 63.374 1255.93 61.6948 1255.93 59.6233C1255.93 57.5519 1254.25 55.8727 1252.18 55.8727C1250.11 55.8727 1248.43 57.5519 1248.43 59.6233C1248.43 61.6948 1250.11 63.374 1252.18 63.374Z" fill="#AFF1FF"/>
        <path opacity="0.5" d="M1269.89 93.528C1269.89 96.8321 1267.21 99.5112 1263.91 99.5112C1260.61 99.5112 1257.93 96.8321 1257.93 93.528C1257.93 90.2238 1260.61 87.5448 1263.91 87.5448C1267.21 87.5448 1269.89 90.2238 1269.89 93.528Z" fill="#AFF1FF"/>
        <path opacity="0.5" d="M1360.71 120.943C1360.71 124.247 1358.04 126.926 1354.73 126.926C1351.43 126.926 1348.75 124.247 1348.75 120.943C1348.75 117.639 1351.43 114.96 1354.73 114.96C1358.04 114.96 1360.71 117.639 1360.71 120.943Z" fill="#AFF1FF"/>
        <path opacity="0.5" d="M255.877 240.607C255.877 242.81 254.091 244.596 251.889 244.596C249.686 244.596 247.9 242.81 247.9 240.607C247.9 238.404 249.686 236.618 251.889 236.618C254.091 236.618 255.877 238.404 255.877 240.607Z" fill="#AFF1FF"/>
        <path opacity="0.5" d="M267.844 87.0394C267.844 92.5463 263.379 97.0113 257.872 97.0113C252.365 97.0113 247.9 92.5463 247.9 87.0394C247.9 81.5324 252.365 77.0674 257.872 77.0674C263.379 77.0674 267.844 81.5324 267.844 87.0394Z" fill="#AFF1FF"/>
        <path opacity="0.5" d="M243.912 146.872C243.912 149.64 241.68 151.872 238.911 151.872C236.143 151.872 233.91 149.64 233.91 146.872C233.91 144.103 236.143 141.871 238.911 141.871C241.68 141.871 243.912 144.103 243.912 146.872Z" fill="#AFF1FF"/>
        <path opacity="0.5" d="M110.168 59.1182C110.168 61.8866 107.935 64.1191 105.167 64.1191C102.399 64.1191 100.166 61.8866 100.166 59.1182C100.166 56.3499 102.399 54.1174 105.167 54.1174C107.935 54.1174 110.168 56.3499 110.168 59.1182Z" fill="#AFF1FF"/>
        <path opacity="0.85" d="M193.009 120.944C193.009 123.712 190.777 125.945 188.008 125.945C185.24 125.945 183.008 123.712 183.008 120.944C183.008 118.176 185.24 115.943 188.008 115.943C190.777 115.943 193.009 118.176 193.009 120.944Z" fill="#AFF1FF"/>
        <path opacity="0.2" d="M112.163 148.866C112.163 151.068 110.377 152.854 108.174 152.854C105.971 152.854 104.185 151.068 104.185 148.866C104.185 146.663 105.971 144.877 108.174 144.877C110.377 144.877 112.163 146.663 112.163 148.866Z" fill="#AFF1FF"/>
        <path opacity="0.2" d="M222.955 94.0346C222.955 95.7016 221.615 97.0411 219.948 97.0411C218.281 97.0411 216.942 95.7016 216.942 94.0346C216.942 92.3677 218.281 91.0281 219.948 91.0281C221.615 91.0281 222.955 92.3677 222.955 94.0346V94.0346Z" fill="#AFF1FF"/>
        <path opacity="0.2" d="M205.989 118.95C205.989 120.617 204.649 121.956 202.982 121.956C201.315 121.956 199.976 120.617 199.976 118.95C199.976 117.283 201.315 115.943 202.982 115.943C204.649 115.943 205.989 117.283 205.989 118.95Z" fill="#AFF1FF"/>
        <path opacity="0.2" d="M191.015 85.0449C191.015 86.7119 189.675 88.0514 188.008 88.0514C186.341 88.0514 185.002 86.7119 185.002 85.0449C185.002 83.378 186.341 82.0385 188.008 82.0385C189.675 82.0385 191.015 83.378 191.015 85.0449Z" fill="#AFF1FF"/>
        <path opacity="0.5" d="M43.3108 243.615C43.3108 246.383 41.0783 248.616 38.31 248.616C35.5416 248.616 33.3091 246.383 33.3091 243.615C33.3091 240.846 35.5416 238.614 38.31 238.614C41.0783 238.614 43.3108 240.846 43.3108 243.615Z" fill="#AFF1FF"/>
        <path opacity="0.2" d="M62.273 126.451C62.273 128.088 60.9334 129.457 59.2665 129.457C57.5995 129.457 56.26 128.118 56.26 126.451C56.26 124.784 57.5995 123.444 59.2665 123.444C60.9334 123.444 62.273 124.784 62.273 126.451Z" fill="#AFF1FF"/>
        <path opacity="0.2" d="M46.7935 179.288C46.7935 180.955 45.454 182.294 43.787 182.294C42.12 182.294 40.7805 180.955 40.7805 179.288C40.7805 177.621 42.12 176.281 43.787 176.281C45.454 176.281 46.7935 177.621 46.7935 179.288Z" fill="#AFF1FF"/>
        <path opacity="0.2" d="M65.7551 164.345C65.7551 166.012 64.4156 167.321 62.7487 167.321C61.0817 167.321 59.7422 165.982 59.7422 164.345C59.7422 162.707 61.0817 161.338 62.7487 161.338C64.4156 161.338 65.7551 162.678 65.7551 164.345Z" fill="#AFF1FF"/>
        <path opacity="0.5" d="M47.2996 39.174C47.2996 41.3767 45.5136 43.1628 43.3108 43.1628C41.108 43.1628 39.322 41.3767 39.322 39.174C39.322 36.9712 41.108 35.1852 43.3108 35.1852C45.5136 35.1852 47.2996 36.9712 47.2996 39.174Z" fill="#AFF1FF"/>
        <path opacity="0.2" d="M80.2229 81.056C80.2229 83.2587 78.4369 85.0448 76.2342 85.0448C74.0314 85.0448 72.2454 83.2587 72.2454 81.056C72.2454 78.8532 74.0314 77.0672 76.2342 77.0672C78.4369 77.0672 80.2229 78.8532 80.2229 81.056Z" fill="#AFF1FF"/>
        <path opacity="0.5" d="M941.562 256.592C943.17 251.324 948.766 248.377 954.035 249.984C959.303 251.591 962.25 257.188 960.643 262.456C959.035 267.725 953.439 270.672 948.17 269.065C942.902 267.457 939.955 261.861 941.562 256.592Z" fill="#AFF1FF"/>
        <path opacity="0.5" d="M982.045 206.434C982.849 203.815 985.647 202.326 988.297 203.13C990.916 203.934 992.404 206.732 991.601 209.351C990.797 211.971 987.999 213.459 985.35 212.655C982.73 211.852 981.242 209.054 982.045 206.434Z" fill="#AFF1FF"/>
        <path opacity="0.5" d="M1084.06 329.611C1084.86 326.991 1087.66 325.503 1090.31 326.306C1092.93 327.11 1094.41 329.908 1093.61 332.528C1092.81 335.147 1090.01 336.636 1087.36 335.832C1084.74 335.028 1083.25 332.23 1084.06 329.611Z" fill="#AFF1FF"/>
        <path opacity="0.85" d="M1023.06 246.173C1023.87 243.554 1026.67 242.065 1029.32 242.869C1031.93 243.673 1033.42 246.471 1032.62 249.09C1031.82 251.71 1029.02 253.198 1026.37 252.395C1023.75 251.591 1022.26 248.793 1023.06 246.173Z" fill="#AFF1FF"/>
        <path opacity="0.2" d="M1108.56 243.256C1109.21 241.143 1111.44 239.982 1113.56 240.607C1115.67 241.262 1116.86 243.495 1116.21 245.578C1115.55 247.692 1113.32 248.853 1111.2 248.228C1109.09 247.573 1107.9 245.34 1108.56 243.256Z" fill="#AFF1FF"/>
        <path opacity="0.2" d="M986.541 263.111C987.017 261.534 988.714 260.641 990.291 261.147C991.869 261.623 992.762 263.32 992.286 264.897C991.809 266.475 990.113 267.368 988.535 266.892C986.957 266.415 986.064 264.719 986.541 263.141V263.111Z" fill="#AFF1FF"/>
        <path opacity="0.2" d="M1010.09 244.268C1010.56 242.69 1012.26 241.797 1013.84 242.274C1015.41 242.75 1016.31 244.447 1015.83 246.024C1015.35 247.602 1013.66 248.495 1012.08 248.019C1010.5 247.542 1009.61 245.846 1010.09 244.268Z" fill="#AFF1FF"/>
        <path opacity="0.2" d="M1014.43 281.09C1014.91 279.513 1016.61 278.62 1018.18 279.126C1019.76 279.602 1020.65 281.299 1020.18 282.876C1019.7 284.454 1018 285.347 1016.43 284.871C1014.85 284.394 1013.96 282.698 1014.43 281.12V281.09Z" fill="#AFF1FF"/>
        <path opacity="0.5" d="M1202.26 172.917C1203.07 170.297 1205.86 168.809 1208.51 169.612C1211.13 170.416 1212.62 173.214 1211.82 175.834C1211.01 178.453 1208.22 179.942 1205.57 179.138C1202.95 178.334 1201.46 175.536 1202.26 172.917V172.917Z" fill="#AFF1FF"/>
        <path opacity="0.2" d="M1149.66 279.364C1150.14 277.787 1151.84 276.894 1153.41 277.4C1154.99 277.876 1155.89 279.573 1155.41 281.15C1154.93 282.728 1153.24 283.621 1151.66 283.145C1150.08 282.668 1149.19 280.972 1149.66 279.394V279.364Z" fill="#AFF1FF"/>
        <path opacity="0.2" d="M1180 233.374C1180.47 231.796 1182.17 230.903 1183.75 231.379C1185.32 231.855 1186.22 233.552 1185.74 235.13C1185.27 236.707 1183.57 237.6 1181.99 237.124C1180.41 236.648 1179.52 234.951 1180 233.374Z" fill="#AFF1FF"/>
        <path opacity="0.2" d="M1157.46 242.096C1157.94 240.518 1159.64 239.625 1161.21 240.131C1162.79 240.607 1163.68 242.304 1163.21 243.882C1162.73 245.459 1161.04 246.352 1159.46 245.876C1157.88 245.4 1156.99 243.703 1157.46 242.125V242.096Z" fill="#AFF1FF"/>
        <path opacity="0.5" d="M1138.29 367.147C1138.95 365.033 1141.18 363.872 1143.29 364.498C1145.41 365.152 1146.6 367.385 1145.94 369.469C1145.29 371.552 1143.06 372.743 1140.94 372.118C1138.83 371.463 1137.64 369.231 1138.29 367.147Z" fill="#AFF1FF"/>
        <path opacity="0.2" d="M1119.12 317.436C1119.78 315.322 1122.01 314.162 1124.12 314.787C1126.24 315.441 1127.43 317.674 1126.77 319.758C1126.12 321.841 1123.89 323.032 1121.77 322.407C1119.66 321.752 1118.47 319.52 1119.12 317.436Z" fill="#AFF1FF"/>
        <path opacity="0.5" d="M1513.42 249.597C1513.42 255.104 1508.95 259.569 1503.45 259.569C1497.94 259.569 1493.48 255.104 1493.48 249.597C1493.48 244.09 1497.94 239.625 1503.45 239.625C1508.95 239.625 1513.42 244.09 1513.42 249.597Z" fill="#AFF1FF"/>
        <path opacity="0.5" d="M1489.46 309.43C1489.46 312.198 1487.22 314.431 1484.46 314.431C1481.69 314.431 1479.46 312.198 1479.46 309.43C1479.46 306.661 1481.69 304.429 1484.46 304.429C1487.22 304.429 1489.46 306.661 1489.46 309.43Z" fill="#AFF1FF"/>
        <path opacity="0.5" d="M1355.71 221.676C1355.71 224.444 1353.48 226.647 1350.71 226.647C1347.94 226.647 1345.71 224.415 1345.71 221.676C1345.71 218.938 1347.94 216.675 1350.71 216.675C1353.48 216.675 1355.71 218.908 1355.71 221.676Z" fill="#AFF1FF"/>
        <path opacity="0.85" d="M1438.55 283.502C1438.55 286.271 1436.32 288.503 1433.55 288.503C1430.79 288.503 1428.55 286.271 1428.55 283.502C1428.55 280.734 1430.79 278.501 1433.55 278.501C1436.32 278.501 1438.55 280.734 1438.55 283.502Z" fill="#AFF1FF"/>
        <path opacity="0.2" d="M1357.71 311.424C1357.71 313.626 1355.92 315.413 1353.72 315.413C1351.52 315.413 1349.73 313.626 1349.73 311.424C1349.73 309.221 1351.52 307.435 1353.72 307.435C1355.92 307.435 1357.71 309.221 1357.71 311.424Z" fill="#AFF1FF"/>
        <path opacity="0.2" d="M1468.5 256.563C1468.5 258.2 1467.16 259.54 1465.49 259.54C1463.83 259.54 1462.49 258.2 1462.49 256.563C1462.49 254.926 1463.83 253.557 1465.49 253.557C1467.16 253.557 1468.5 254.896 1468.5 256.563Z" fill="#AFF1FF"/>
        <path opacity="0.2" d="M1451.53 281.508C1451.53 283.175 1450.19 284.514 1448.53 284.514C1446.86 284.514 1445.52 283.175 1445.52 281.508C1445.52 279.841 1446.86 278.501 1448.53 278.501C1450.19 278.501 1451.53 279.841 1451.53 281.508Z" fill="#AFF1FF"/>
        <path opacity="0.2" d="M1436.56 247.603C1436.56 249.27 1435.22 250.61 1433.55 250.61C1431.89 250.61 1430.55 249.27 1430.55 247.603C1430.55 245.936 1431.89 244.597 1433.55 244.597C1435.22 244.597 1436.56 245.936 1436.56 247.603Z" fill="#AFF1FF"/>
        <path opacity="0.5" d="M1288.86 406.173C1288.86 408.941 1286.62 411.174 1283.85 411.174C1281.09 411.174 1278.85 408.941 1278.85 406.173C1278.85 403.405 1281.09 401.172 1283.85 401.172C1286.62 401.172 1288.86 403.405 1288.86 406.173Z" fill="#AFF1FF"/>
        <path opacity="0.2" d="M1307.82 288.979C1307.82 290.646 1306.48 291.986 1304.81 291.986C1303.14 291.986 1301.81 290.646 1301.81 288.979C1301.81 287.312 1303.14 285.973 1304.81 285.973C1306.48 285.973 1307.82 287.312 1307.82 288.979Z" fill="#AFF1FF"/>
        <path opacity="0.2" d="M1292.34 341.846C1292.34 343.513 1291 344.852 1289.33 344.852C1287.66 344.852 1286.32 343.513 1286.32 341.846C1286.32 340.179 1287.66 338.839 1289.33 338.839C1291 338.839 1292.34 340.179 1292.34 341.846Z" fill="#AFF1FF"/>
        <path opacity="0.2" d="M1311.3 326.873C1311.3 328.54 1309.96 329.88 1308.29 329.88C1306.63 329.88 1305.29 328.54 1305.29 326.873C1305.29 325.206 1306.63 323.867 1308.29 323.867C1309.96 323.867 1311.3 325.206 1311.3 326.873Z" fill="#AFF1FF"/>
        <path opacity="0.5" d="M1292.84 201.732C1292.84 203.935 1291.06 205.721 1288.86 205.721C1286.65 205.721 1284.87 203.935 1284.87 201.732C1284.87 199.529 1286.65 197.743 1288.86 197.743C1291.06 197.743 1292.84 199.529 1292.84 201.732Z" fill="#AFF1FF"/>
        <path opacity="0.2" d="M1325.77 243.614C1325.77 245.817 1323.98 247.603 1321.78 247.603C1319.58 247.603 1317.79 245.817 1317.79 243.614C1317.79 241.411 1319.58 239.625 1321.78 239.625C1323.98 239.625 1325.77 241.411 1325.77 243.614Z" fill="#AFF1FF"/>
        <path opacity="0.5" d="M2511.93 824.697C2511.93 831.246 2506.6 836.545 2500.05 836.545C2493.5 836.545 2488.17 831.246 2488.17 824.697C2488.17 818.148 2493.5 812.85 2500.05 812.85C2506.6 812.85 2511.93 818.148 2511.93 824.697Z" fill="#AFF1FF"/>
        <path opacity="0.5" d="M2477.51 901.764C2480.79 901.764 2483.44 899.112 2483.44 895.84C2483.44 892.569 2480.79 889.917 2477.51 889.917C2474.24 889.917 2471.59 892.569 2471.59 895.84C2471.59 899.112 2474.24 901.764 2477.51 901.764Z" fill="#AFF1FF"/>
        <path opacity="0.5" d="M2324.39 791.477C2324.39 794.751 2321.74 797.401 2318.47 797.401C2315.2 797.401 2312.55 794.751 2312.55 791.477C2312.55 788.203 2315.2 785.553 2318.47 785.553C2321.74 785.553 2324.39 788.203 2324.39 791.477Z" fill="#AFF1FF"/>
        <path opacity="0.85" d="M2416.97 870.925C2420.24 870.925 2422.89 868.273 2422.89 865.001C2422.89 861.73 2420.24 859.078 2416.97 859.078C2413.7 859.078 2411.05 861.73 2411.05 865.001C2411.05 868.273 2413.7 870.925 2416.97 870.925Z" fill="#AFF1FF"/>
        <path opacity="0.2" d="M2326.78 898.222C2326.78 900.841 2324.66 902.955 2322.04 902.955C2319.42 902.955 2317.28 900.841 2317.28 898.222C2317.28 895.602 2319.39 893.489 2322.04 893.489C2324.69 893.489 2326.78 895.602 2326.78 898.222Z" fill="#AFF1FF"/>
        <path opacity="0.2" d="M2454.95 836.574C2456.92 836.574 2458.52 834.975 2458.52 833.002C2458.52 831.029 2456.92 829.43 2454.95 829.43C2452.98 829.43 2451.38 831.029 2451.38 833.002C2451.38 834.975 2452.98 836.574 2454.95 836.574Z" fill="#AFF1FF"/>
        <path opacity="0.2" d="M2434.77 866.222C2436.74 866.222 2438.34 864.623 2438.34 862.65C2438.34 860.677 2436.74 859.078 2434.77 859.078C2432.8 859.078 2431.2 860.677 2431.2 862.65C2431.2 864.623 2432.8 866.222 2434.77 866.222Z" fill="#AFF1FF"/>
        <path opacity="0.2" d="M2416.97 825.888C2418.94 825.888 2420.54 824.289 2420.54 822.316C2420.54 820.343 2418.94 818.744 2416.97 818.744C2415 818.744 2413.4 820.343 2413.4 822.316C2413.4 824.289 2415 825.888 2416.97 825.888Z" fill="#AFF1FF"/>
        <path opacity="0.5" d="M2244.86 1010.89C2244.86 1014.16 2242.21 1016.81 2238.93 1016.81C2235.66 1016.81 2233.01 1014.16 2233.01 1010.89C2233.01 1007.62 2235.66 1004.97 2238.93 1004.97C2242.21 1004.97 2244.86 1007.62 2244.86 1010.89Z" fill="#AFF1FF"/>
        <path opacity="0.2" d="M2263.85 875.093C2265.82 875.093 2267.42 873.494 2267.42 871.521C2267.42 869.548 2265.82 867.949 2263.85 867.949C2261.87 867.949 2260.28 869.548 2260.28 871.521C2260.28 873.494 2261.87 875.093 2263.85 875.093Z" fill="#AFF1FF"/>
        <path opacity="0.2" d="M2249.02 934.389C2249.02 936.354 2247.42 937.961 2245.45 937.961C2243.49 937.961 2241.88 936.354 2241.88 934.389C2241.88 932.424 2243.49 930.817 2245.45 930.817C2247.42 930.817 2249.02 932.424 2249.02 934.389Z" fill="#AFF1FF"/>
        <path opacity="0.2" d="M2268.01 920.19C2269.99 920.19 2271.59 918.591 2271.59 916.618C2271.59 914.645 2269.99 913.046 2268.01 913.046C2266.04 913.046 2264.44 914.645 2264.44 916.618C2264.44 918.591 2266.04 920.19 2268.01 920.19Z" fill="#AFF1FF"/>
        <path opacity="0.5" d="M2249.62 767.753C2249.62 770.372 2247.51 772.486 2244.89 772.486C2242.27 772.486 2240.12 770.372 2240.12 767.753C2240.12 765.133 2242.24 763.02 2244.89 763.02C2247.54 763.02 2249.62 765.133 2249.62 767.753Z" fill="#AFF1FF"/>
        <path opacity="0.2" d="M2288.79 817.583C2288.79 820.203 2286.68 822.316 2284.03 822.316C2281.38 822.316 2279.27 820.203 2279.27 817.583C2279.27 814.964 2281.38 812.85 2284.03 812.85C2286.68 812.85 2288.79 814.964 2288.79 817.583Z" fill="#AFF1FF"/>
        <rect x="2" y="-2" width="2557" height="1493" fill="url(#paint18_linear_1501_4918)"/>
        <g filter="url(#filter0_f_1501_4918)">
            <rect x="33" y="309" width="837" height="326" fill="#0A102D" fill-opacity="0.35"/>
        </g>
        <path style="mix-blend-mode:screen" d="M2229.93 1114.06C2319.13 878.017 1929.05 482.078 1358.66 229.707C788.264 -22.6632 253.556 -35.8977 164.353 200.147C75.1499 436.192 465.231 832.131 1035.62 1084.5C1606.02 1336.87 2140.72 1350.11 2229.93 1114.06Z" fill="url(#paint19_radial_1501_4918)" fill-opacity="0.5"/>
        <path d="M2560 0L2560 1200.5L1263 1200.5L0.000191665 1200.5L0.000244141 -0.000111901L2560 0Z" fill="url(#paint20_linear_1501_4918)"/>
    </g>
    <defs>
        <filter id="filter0_f_1501_4918" x="-139" y="137" width="1181" height="670" filterUnits="userSpaceOnUse" color-interpolation-filters="sRGB">
            <feFlood flood-opacity="0" result="BackgroundImageFix"/>
            <feBlend mode="normal" in="SourceGraphic" in2="BackgroundImageFix" result="shape"/>
            <feGaussianBlur stdDeviation="86" result="effect1_foregroundBlur_1501_4918"/>
        </filter>
        <radialGradient id="paint0_radial_1501_4918" cx="0" cy="0" r="1" gradientUnits="userSpaceOnUse" gradientTransform="translate(2185.85 512.832) rotate(-27.8476) scale(1097.86 1097.86)">
            <stop offset="0.13" stop-color="#61A9E1"/>
            <stop offset="0.36" stop-color="#5F2DB9"/>
            <stop offset="0.66" stop-color="#5B318F"/>
            <stop offset="0.99" stop-color="#200C71"/>
        </radialGradient>
        <linearGradient id="paint1_linear_1501_4918" x1="439.273" y1="808.624" x2="780.583" y2="555.484" gradientUnits="userSpaceOnUse">
            <stop stop-color="#564CD8"/>
            <stop offset="0.13" stop-color="#5255D8"/>
            <stop offset="0.36" stop-color="#4870DA"/>
            <stop offset="0.65" stop-color="#399BDC"/>
            <stop offset="0.99" stop-color="#24D7E0"/>
        </linearGradient>
        <linearGradient id="paint2_linear_1501_4918" x1="635.615" y1="868.127" x2="772.365" y2="868.127" gradientUnits="userSpaceOnUse">
            <stop stop-color="#8A96FF"/>
            <stop offset="0.48" stop-color="#8A96FF"/>
        </linearGradient>
        <linearGradient id="paint3_linear_1501_4918" x1="208.072" y1="871.135" x2="595.193" y2="352.741" gradientUnits="userSpaceOnUse">
            <stop offset="0.01" stop-color="#2E2EA8"/>
            <stop offset="0.24" stop-color="#3060BF"/>
            <stop offset="0.61" stop-color="#33AAE1"/>
            <stop offset="0.87" stop-color="#35D9F6"/>
            <stop offset="1" stop-color="#36EBFF"/>
        </linearGradient>
        <linearGradient id="paint4_linear_1501_4918" x1="1555.27" y1="532.712" x2="1555.27" y2="-5.92382" gradientUnits="userSpaceOnUse">
            <stop/>
            <stop offset="0.04" stop-color="#101010"/>
            <stop offset="0.19" stop-color="#4E4E4E"/>
            <stop offset="0.35" stop-color="#848484"/>
            <stop offset="0.5" stop-color="#B0B0B0"/>
            <stop offset="0.64" stop-color="#D2D2D2"/>
            <stop offset="0.77" stop-color="#EBEBEB"/>
            <stop offset="0.9" stop-color="#F9F9F9"/>
            <stop offset="1" stop-color="white"/>
        </linearGradient>
        <linearGradient id="paint5_linear_1501_4918" x1="1095.96" y1="851.219" x2="2131.62" y2="257.604" gradientUnits="userSpaceOnUse">
            <stop/>
            <stop offset="0.04" stop-color="#101010"/>
            <stop offset="0.19" stop-color="#4E4E4E"/>
            <stop offset="0.35" stop-color="#848484"/>
            <stop offset="0.5" stop-color="#B0B0B0"/>
            <stop offset="0.64" stop-color="#D2D2D2"/>
            <stop offset="0.77" stop-color="#EBEBEB"/>
            <stop offset="0.9" stop-color="#F9F9F9"/>
            <stop offset="1" stop-color="white"/>
        </linearGradient>
        <linearGradient id="paint6_linear_1501_4918" x1="1777.04" y1="913.016" x2="2442.98" y2="530.925" gradientUnits="userSpaceOnUse">
            <stop/>
            <stop offset="0.04" stop-color="#101010"/>
            <stop offset="0.19" stop-color="#4E4E4E"/>
            <stop offset="0.35" stop-color="#848484"/>
            <stop offset="0.5" stop-color="#B0B0B0"/>
            <stop offset="0.64" stop-color="#D2D2D2"/>
            <stop offset="0.77" stop-color="#EBEBEB"/>
            <stop offset="0.9" stop-color="#F9F9F9"/>
            <stop offset="1" stop-color="white"/>
        </linearGradient>
        <linearGradient id="paint7_linear_1501_4918" x1="371.494" y1="959.066" x2="653.269" y2="505.594" gradientUnits="userSpaceOnUse">
            <stop offset="0.01" stop-color="#2B2BA1"/>
            <stop offset="0.99" stop-color="#32DBED"/>
        </linearGradient>
        <linearGradient id="paint8_linear_1501_4918" x1="56.2598" y1="1174.58" x2="2618.19" y2="916.236" gradientUnits="userSpaceOnUse">
            <stop stop-color="#4B3DA2"/>
            <stop offset="0.19" stop-color="#4470BD"/>
            <stop offset="0.37" stop-color="#3F9CD5"/>
            <stop offset="0.55" stop-color="#3BBEE7"/>
            <stop offset="0.72" stop-color="#38D7F4"/>
            <stop offset="0.87" stop-color="#36E5FC"/>
            <stop offset="1" stop-color="#36EBFF"/>
        </linearGradient>
        <linearGradient id="paint9_linear_1501_4918" x1="767.873" y1="966.776" x2="993.209" y2="905.515" gradientUnits="userSpaceOnUse">
            <stop/>
            <stop offset="0.04" stop-color="#101010"/>
            <stop offset="0.19" stop-color="#4E4E4E"/>
            <stop offset="0.35" stop-color="#848484"/>
            <stop offset="0.5" stop-color="#B0B0B0"/>
            <stop offset="0.64" stop-color="#D2D2D2"/>
            <stop offset="0.77" stop-color="#EBEBEB"/>
            <stop offset="0.9" stop-color="#F9F9F9"/>
            <stop offset="1" stop-color="white"/>
        </linearGradient>
        <linearGradient id="paint10_linear_1501_4918" x1="1154.16" y1="984.636" x2="1705.27" y2="984.636" gradientUnits="userSpaceOnUse">
            <stop/>
            <stop offset="0.04" stop-color="#101010"/>
            <stop offset="0.19" stop-color="#4E4E4E"/>
            <stop offset="0.35" stop-color="#848484"/>
            <stop offset="0.5" stop-color="#B0B0B0"/>
            <stop offset="0.64" stop-color="#D2D2D2"/>
            <stop offset="0.77" stop-color="#EBEBEB"/>
            <stop offset="0.9" stop-color="#F9F9F9"/>
            <stop offset="1" stop-color="white"/>
        </linearGradient>
        <linearGradient id="paint11_linear_1501_4918" x1="510.386" y1="629.545" x2="624.156" y2="629.545" gradientUnits="userSpaceOnUse">
            <stop stop-color="#8A96FF"/>
            <stop offset="0.48" stop-color="#8A96FF"/>
        </linearGradient>
        <linearGradient id="paint12_linear_1501_4918" x1="689.852" y1="864.139" x2="772.367" y2="864.139" gradientUnits="userSpaceOnUse">
            <stop/>
            <stop offset="0.04" stop-color="#101010"/>
            <stop offset="0.19" stop-color="#4E4E4E"/>
            <stop offset="0.35" stop-color="#848484"/>
            <stop offset="0.5" stop-color="#B0B0B0"/>
            <stop offset="0.64" stop-color="#D2D2D2"/>
            <stop offset="0.77" stop-color="#EBEBEB"/>
            <stop offset="0.9" stop-color="#F9F9F9"/>
            <stop offset="1" stop-color="white"/>
        </linearGradient>
        <linearGradient id="paint13_linear_1501_4918" x1="440.403" y1="502.052" x2="500.354" y2="465.201" gradientUnits="userSpaceOnUse">
            <stop/>
            <stop offset="0.04" stop-color="#101010"/>
            <stop offset="0.19" stop-color="#4E4E4E"/>
            <stop offset="0.35" stop-color="#848484"/>
            <stop offset="0.5" stop-color="#B0B0B0"/>
            <stop offset="0.64" stop-color="#D2D2D2"/>
            <stop offset="0.77" stop-color="#EBEBEB"/>
            <stop offset="0.9" stop-color="#F9F9F9"/>
            <stop offset="1" stop-color="white"/>
        </linearGradient>
        <radialGradient id="paint14_radial_1501_4918" cx="0" cy="0" r="1" gradientUnits="userSpaceOnUse" gradientTransform="translate(390.811 305.381) scale(38.1912 38.1912)">
            <stop stop-color="#45EDE8"/>
            <stop offset="0.99" stop-color="#45EDE8" stop-opacity="0"/>
        </radialGradient>
        <radialGradient id="paint15_radial_1501_4918" cx="0" cy="0" r="1" gradientUnits="userSpaceOnUse" gradientTransform="translate(354.585 272.16) scale(11.4008 11.4008)">
            <stop stop-color="#45EDE8"/>
            <stop offset="0.99"/>
        </radialGradient>
        <radialGradient id="paint16_radial_1501_4918" cx="0" cy="0" r="1" gradientUnits="userSpaceOnUse" gradientTransform="translate(2188.51 511.756) scale(135.713 135.822)">
            <stop stop-color="#E859E9"/>
            <stop offset="0.125" stop-color="#E558E6"/>
            <stop offset="0.25" stop-color="#DE55DF"/>
            <stop offset="0.375" stop-color="#D150D2"/>
            <stop offset="1" stop-color="#BF49BF" stop-opacity="0"/>
        </radialGradient>
        <linearGradient id="paint17_linear_1501_4918" x1="2098.49" y1="556.378" x2="2276.71" y2="463.976" gradientUnits="userSpaceOnUse">
            <stop stop-color="#FF4773"/>
            <stop offset="0.09" stop-color="#FF557E"/>
            <stop offset="0.25" stop-color="#FF5B83"/>
            <stop offset="0.45" stop-color="#FF98B1"/>
            <stop offset="0.68" stop-color="#9AA8F1"/>
            <stop offset="0.95" stop-color="#7AF4FD"/>
            <stop offset="0.98" stop-color="#76FFFF"/>
        </linearGradient>
        <linearGradient id="paint18_linear_1501_4918" x1="973.021" y1="-549.523" x2="1102.1" y2="1138.05" gradientUnits="userSpaceOnUse">
            <stop offset="0.3086" stop-color="#0A102D"/>
            <stop offset="0.511437" stop-color="#0A102D" stop-opacity="0"/>
            <stop offset="0.738341" stop-color="#0A102D" stop-opacity="0"/>
            <stop offset="0.883927" stop-color="#0A102D" stop-opacity="0.67"/>
            <stop offset="1" stop-color="#0A102D"/>
        </linearGradient>
        <radialGradient id="paint19_radial_1501_4918" cx="0" cy="0" r="1" gradientUnits="userSpaceOnUse" gradientTransform="translate(1185.43 681.664) rotate(-66.5942) scale(358.07 880.734)">
            <stop stop-color="#FF4C77"/>
            <stop offset="1" stop-color="#FF4C77" stop-opacity="0"/>
        </radialGradient>
        <linearGradient id="paint20_linear_1501_4918" x1="16.9998" y1="592" x2="2556.77" y2="485.775" gradientUnits="userSpaceOnUse">
            <stop offset="0.00271594" stop-color="#0A102D"/>
            <stop offset="0.11706" stop-color="#0A102D" stop-opacity="0"/>
            <stop offset="0.850279" stop-color="#0A102D" stop-opacity="0"/>
            <stop offset="0.94241" stop-color="#0A102D" stop-opacity="0.51"/>
            <stop offset="1" stop-color="#0A102D"/>
        </linearGradient>
        <clipPath id="clip0_1501_4918">
            <rect width="2560" height="1489" fill="white"/>
        </clipPath>
    </defs>
</svg>
